<?xml version="1.0" encoding="UTF-8"?>
<svg xmlns="http://www.w3.org/2000/svg" xmlns:xlink="http://www.w3.org/1999/xlink" width="1012.5pt" height="487.499991pt" viewBox="0 0 1012.5 487.499991" version="1.2">
<defs>
<clipPath id="clip1">
  <path d="M 0.269531 0 L 1011.730469 0 L 1011.730469 487 L 0.269531 487 Z M 0.269531 0 "/>
</clipPath>
<clipPath id="clip2">
  <path d="M 0.269531 0 L 805 0 L 805 487 L 0.269531 487 Z M 0.269531 0 "/>
</clipPath>
<filter id="alpha" filterUnits="objectBoundingBox" x="0%" y="0%" width="100%" height="100%">
  <feColorMatrix type="matrix" in="SourceGraphic" values="0 0 0 0 1 0 0 0 0 1 0 0 0 0 1 0 0 0 1 0"/>
</filter>
<mask id="mask0">
  <g filter="url(#alpha)">
<rect x="0" y="0" width="1012.5" height="487.499991" style="fill:rgb(0%,0%,0%);fill-opacity:0.898;stroke:none;"/>
  </g>
</mask>
<clipPath id="clip4">
  <path d="M 0.269531 0 L 804.644531 0 L 804.644531 487 L 0.269531 487 Z M 0.269531 0 "/>
</clipPath>
<clipPath id="clip3">
  <rect x="0" y="0" width="805" height="487"/>
</clipPath>
<g id="surface5" clip-path="url(#clip3)">
<g clip-path="url(#clip4)" clip-rule="nonzero">
<path style=" stroke:none;fill-rule:nonzero;fill:rgb(66.268921%,69.018555%,79.60968%);fill-opacity:1;" d="M 804.507812 800.824219 L -168.453125 800.824219 L -168.453125 -170.214844 Z M 804.507812 800.824219 "/>
</g>
</g>
</defs>
<g id="surface1">
<g clip-path="url(#clip1)" clip-rule="nonzero">
<path style=" stroke:none;fill-rule:nonzero;fill:rgb(100%,100%,100%);fill-opacity:1;" d="M 0.269531 0 L 1012.230469 0 L 1012.230469 493.988281 L 0.269531 493.988281 Z M 0.269531 0 "/>
<path style=" stroke:none;fill-rule:nonzero;fill:rgb(100%,100%,100%);fill-opacity:1;" d="M 0.269531 0 L 1012.230469 0 L 1012.230469 487.242188 L 0.269531 487.242188 Z M 0.269531 0 "/>
<path style=" stroke:none;fill-rule:nonzero;fill:rgb(93.328857%,71.369934%,70.588684%);fill-opacity:1;" d="M 0.269531 0 L 1012.230469 0 L 1012.230469 487.242188 L 0.269531 487.242188 Z M 0.269531 0 "/>
</g>
<g clip-path="url(#clip2)" clip-rule="nonzero">
<use xlink:href="#surface5" transform="matrix(1,0,0,1,0.000000000000000056,0)" mask="url(#mask0)"/>
</g>
</g>
</svg>
