<?xml version="1.0" encoding="UTF-8"?>
<svg xmlns="http://www.w3.org/2000/svg" xmlns:xlink="http://www.w3.org/1999/xlink" width="600pt" height="599.999999pt" viewBox="0 0 600 599.999999" version="1.2">
<defs>
<clipPath id="clip1">
  <path d="M 77 29 L 523.378906 29 L 523.378906 582.183594 L 77 582.183594 Z M 77 29 "/>
</clipPath>
</defs>
<g id="surface1">
<g clip-path="url(#clip1)" clip-rule="nonzero">
<path style=" stroke:none;fill-rule:nonzero;fill:rgb(13.729858%,12.159729%,12.548828%);fill-opacity:1;" d="M 180.152344 139.394531 C 180.949219 138.855469 181.488281 138.46875 182.046875 138.078125 C 180.882812 137.625 180.023438 137.582031 180.152344 139.394531 Z M 347.800781 301.082031 C 347.261719 300.238281 346.832031 299.570312 346.273438 298.707031 C 345.820312 301.535156 345.929688 301.726562 347.800781 301.082031 Z M 357.015625 453.308594 C 355.898438 451.167969 354.433594 453.265625 355.078125 453.847656 C 355.855469 454.539062 356.433594 454.019531 357.015625 453.308594 Z M 344.9375 325.394531 C 347.304688 324.292969 347.304688 324.292969 345.929688 322.78125 C 345.625 323.578125 345.367188 324.25 344.9375 325.394531 Z M 473.828125 55.335938 C 472.902344 53.585938 472.6875 53.566406 471.179688 55.335938 C 472.171875 55.335938 472.945312 55.335938 473.828125 55.335938 Z M 347.972656 294.085938 C 350.148438 292.875 349.070312 290.800781 347.714844 291.386719 C 347.800781 292.335938 347.886719 293.222656 347.972656 294.085938 Z M 348.210938 316.820312 C 348.382812 316.820312 348.554688 316.800781 348.726562 316.777344 C 349.050781 314.296875 349.050781 314.296875 347.628906 313.410156 C 347.84375 314.707031 348.039062 315.761719 348.210938 316.820312 Z M 185.859375 137.429688 C 185.878906 137.667969 185.878906 137.886719 185.902344 138.121094 C 187.386719 137.886719 188.871094 137.648438 190.378906 137.429688 C 190.359375 137.28125 190.335938 137.152344 190.316406 137 C 188.828125 137.152344 187.34375 137.300781 185.859375 137.429688 Z M 347.5625 378.339844 C 348.144531 376.675781 348.359375 375.421875 347.648438 373.867188 C 346.984375 374.539062 346.488281 375.011719 346.015625 375.511719 C 346.507812 376.4375 346.941406 377.214844 347.5625 378.339844 Z M 351.050781 414.117188 C 351.65625 411.160156 351.503906 410.597656 350.148438 410.164062 C 350.0625 413.425781 350.0625 413.425781 351.050781 414.117188 Z M 345.476562 309.132812 C 345.519531 310.777344 344.957031 312.113281 345.90625 313.453125 C 347.757812 310.601562 347.757812 310.601562 345.476562 309.132812 Z M 116.78125 125.835938 C 119.066406 127.519531 119.582031 127.519531 121.671875 126.074219 C 120.164062 124.777344 118.675781 125.210938 116.78125 125.835938 Z M 348.46875 270.808594 C 348.296875 270.785156 348.125 270.785156 347.953125 270.765625 C 346.832031 272.816406 347.953125 274.933594 347.886719 277.027344 C 347.886719 277.179688 348.46875 277.351562 349.222656 277.761719 C 348.941406 275.148438 348.707031 272.96875 348.46875 270.808594 Z M 251.808594 426.296875 C 252.046875 426.316406 252.304688 426.359375 252.542969 426.425781 C 251.832031 424.222656 253.941406 422.667969 253.707031 420.3125 C 252.757812 420.746094 252.089844 421.046875 251.207031 421.4375 C 251.402344 423.054688 251.617188 424.675781 251.808594 426.296875 Z M 349.910156 432.425781 C 349.71875 430.980469 350.472656 429.640625 349.546875 428.023438 C 348.359375 430.050781 349.242188 429.554688 346.53125 430.269531 C 346.636719 431.347656 346.722656 432.191406 346.8125 433.140625 C 347.886719 432.902344 348.707031 432.707031 349.910156 432.425781 Z M 348.253906 312.589844 C 348.640625 312.351562 348.855469 312.289062 348.855469 312.199219 C 348.921875 304.191406 349.351562 303.066406 346.8125 302.65625 C 347.910156 305.980469 347.371094 309.308594 348.253906 312.589844 Z M 346.1875 360.652344 C 345.949219 364.539062 346.25 368.339844 347.003906 369.59375 C 347.757812 364.390625 350.039062 366.613281 346.1875 360.652344 Z M 351.417969 415.585938 C 351.246094 415.605469 351.050781 415.605469 350.878906 415.628906 C 350.019531 417.660156 349.414062 424.699219 350.082031 425.625 C 350.6875 425.386719 351.3125 425.152344 351.71875 425 C 351.613281 421.695312 351.527344 418.652344 351.417969 415.585938 Z M 336.539062 485.027344 C 334.816406 487.964844 335.636719 490.921875 335.097656 493.792969 C 337.273438 493.492188 337.273438 493.964844 337.316406 489.433594 C 337.335938 488.050781 337.679688 486.625 336.539062 485.027344 Z M 346.445312 342.539062 C 347.910156 343.921875 346.101562 345.929688 347.800781 347.375 C 350.472656 343.726562 347.476562 330.230469 346.855469 325.890625 C 346.660156 325.910156 346.464844 325.933594 346.273438 325.933594 C 345.367188 350.355469 345.582031 347.460938 346.035156 348.628906 C 346.164062 348.605469 346.316406 348.585938 346.445312 348.539062 C 346.445312 346.53125 346.445312 344.546875 346.445312 342.539062 Z M 349.695312 407.617188 C 351.914062 407.53125 349.4375 374.128906 349.394531 373.609375 C 347.027344 378.035156 349.308594 406.257812 349.695312 407.617188 Z M 348.621094 193.203125 C 348.621094 259.644531 349.136719 253.015625 350.492188 272.707031 C 351.589844 272.492188 352.324219 272.320312 353.378906 272.105469 C 354.886719 262.582031 359.363281 160.082031 358.265625 157.425781 C 357.707031 159.84375 356.757812 156 355.789062 161.246094 C 355.617188 157.449219 355.464844 154.078125 355.316406 150.753906 C 355.550781 151.164062 355.769531 151.574219 356.15625 152.265625 C 356.628906 151.140625 357.597656 134.558594 354.304688 139.503906 C 353.613281 137.214844 351.828125 138.230469 350.492188 138.382812 C 347.757812 138.640625 349.136719 141.296875 348.253906 142.679688 C 347.738281 139.007812 347.738281 139.007812 345.820312 139.441406 C 345.882812 139.804688 345.882812 140.214844 346.015625 140.5625 C 348.210938 146.113281 345.949219 146.371094 347.585938 150.300781 C 349.371094 154.554688 347.003906 157.230469 348.101562 162.457031 C 348.296875 163.40625 346.617188 165.933594 346.617188 167.574219 C 346.59375 169.214844 347.175781 170.878906 347.5 172.519531 C 348.058594 172.433594 348.382812 172.367188 348.75 172.304688 C 346.359375 186.121094 346.445312 187.160156 347.867188 195.210938 C 348.058594 195.210938 348.230469 195.191406 348.425781 195.191406 C 348.488281 194.433594 348.578125 193.703125 348.621094 193.203125 Z M 483.648438 54.992188 C 482.65625 54.949219 481.710938 54.992188 481.496094 56.632812 C 481.558594 56.632812 484.402344 58.445312 501.671875 60.582031 C 485.433594 60.582031 486.597656 59.742188 483.710938 60.476562 C 483.21875 62.828125 499.257812 63.046875 508.882812 64.835938 C 507.980469 65.355469 507.527344 65.613281 506.601562 66.132812 C 512.542969 67.277344 518.035156 67.621094 523.480469 68.011719 C 520.875 69.089844 517.949219 66.933594 515.042969 68.703125 C 515.664062 69.113281 516.054688 69.394531 516.527344 69.71875 C 508.496094 73.34375 499.925781 70.472656 491.550781 72.222656 C 493.058594 75.742188 494.242188 72.695312 508 75.007812 C 495.316406 75.007812 509.398438 76.757812 492.710938 76.539062 C 485.089844 76.433594 485.476562 77.511719 482.097656 79.972656 C 484.550781 80.816406 486.835938 81.59375 489.179688 82.390625 C 488.339844 82.328125 472.40625 80.945312 471.632812 83.0625 C 481.277344 85.414062 491.078125 85.046875 501.003906 85.976562 C 495.898438 86.191406 491.054688 85.933594 486.1875 86.148438 C 485.953125 90.316406 490.0625 85.632812 495.316406 88.695312 C 485.199219 91.4375 479.0625 91.289062 468.339844 91.894531 C 472.105469 94.960938 481.710938 91.894531 485.585938 94.59375 C 474.753906 94.59375 473.375 94.375 470.859375 95.433594 C 474.605469 96.902344 476.390625 99.515625 486.984375 97.097656 C 492.324219 98.390625 492.992188 97.269531 494.738281 98.890625 C 495.144531 99.277344 495.941406 99.191406 496.546875 99.320312 C 463.0625 99.320312 464.570312 99.234375 460.78125 100.679688 C 461.621094 103.683594 488.234375 101.113281 491.140625 102.429688 C 482.074219 103.335938 449.046875 102.667969 448.464844 108.5625 C 406.066406 113.269531 407.488281 111.886719 407.617188 115.191406 C 408.652344 115.277344 409.621094 115.363281 410.609375 115.429688 C 410.609375 115.492188 410.632812 115.535156 410.632812 115.578125 C 399.003906 117.5 398.960938 116.703125 396.871094 118.363281 C 398.960938 119.464844 398.015625 119.164062 413.152344 118.300781 C 416.015625 118.128906 417.886719 119.445312 420.105469 118.796875 C 433.304688 114.996094 431.625 118.386719 444.414062 118.386719 C 443.878906 122.121094 373.703125 125.015625 365.800781 128.277344 C 367.910156 130.953125 368.300781 130.390625 379.023438 130.390625 C 366.964844 132.292969 366.191406 131.839844 367.007812 134.148438 C 377.191406 133.953125 387.378906 133.804688 397.5625 133.632812 C 397.605469 133.738281 397.625 133.867188 397.667969 133.976562 C 339.898438 150.601562 366.277344 86.234375 356.003906 311.789062 C 354.84375 337.335938 358.976562 336.082031 355.421875 339.925781 C 359.234375 352.015625 358.761719 392.804688 358.007812 393.710938 C 357.296875 392.199219 357.554688 363.09375 356.132812 360.566406 C 356.003906 364.261719 355.660156 408.199219 358.589844 407.597656 C 357.855469 411.246094 359.621094 466.867188 359.664062 466.933594 C 359.816406 467.125 359.792969 467.667969 359.644531 467.796875 C 358.332031 468.917969 360.527344 470.472656 359.578125 471.488281 C 358.09375 473.152344 357.597656 475.074219 358.09375 477.339844 C 357.878906 477.339844 357.664062 477.316406 357.449219 477.296875 C 356.953125 473.433594 356.328125 475.074219 359.171875 470.863281 C 357.75 470.644531 357.75 470.644531 355.855469 473 C 354.800781 467.277344 358.136719 466.566406 356.523438 463.261719 C 355.832031 461.835938 354.800781 460.539062 355.617188 458.726562 C 355.378906 458.597656 355.164062 458.488281 354.929688 458.359375 C 354.648438 458.75 354.347656 459.117188 354.089844 459.441406 C 354.089844 459.441406 352.300781 432.191406 351.761719 430.332031 C 349.546875 431.066406 352.257812 433.25 350.167969 433.917969 C 348.144531 432.6875 344.980469 434.199219 347.757812 438.601562 C 348.402344 438.042969 349.070312 437.457031 350.0625 436.59375 C 350.105469 439.230469 351.160156 441.453125 349.007812 443.632812 C 348.683594 442.941406 348.511719 442.554688 348.210938 441.886719 C 346.316406 443.265625 346.8125 446.355469 347.476562 447.414062 L 347.433594 447.347656 C 346.402344 448.835938 347.113281 450.328125 347.5 451.796875 L 347.542969 451.753906 C 346.25 452.121094 346.59375 452.59375 346.59375 458.121094 C 345.882812 458.339844 345.367188 458.488281 344.742188 458.683594 C 345.023438 459.71875 345.367188 460.714844 344.054688 461.316406 C 342.957031 461.835938 344.914062 463.648438 344.421875 467.234375 C 344.3125 467.992188 344.636719 468.789062 344.765625 469.632812 C 341.730469 472.222656 346.464844 473.5625 341.75 479.414062 C 342.460938 479.929688 343.085938 480.382812 343.839844 480.925781 C 343.558594 483.386719 343.257812 485.890625 342.957031 488.523438 C 342.203125 483.796875 342.246094 485.675781 343.171875 481.355469 C 342.160156 482.21875 341.601562 482.714844 340.78125 483.429688 C 340.953125 481.960938 343.234375 465.894531 340.609375 464.472656 C 337.097656 466.714844 340.566406 493.835938 336.648438 496.277344 C 336.992188 496.988281 337.25 497.527344 337.636719 498.328125 C 334.988281 498.242188 335.203125 500.421875 334.34375 501.890625 C 335.117188 502.667969 336.261719 503.335938 335.140625 504.847656 C 334.539062 504.523438 333.914062 504.179688 333.050781 503.726562 C 332.039062 506.964844 332.363281 510.398438 331.4375 513.851562 C 331.285156 512.535156 331.179688 511.433594 331.027344 509.902344 C 329.046875 512.320312 330.960938 510.507812 328.421875 524.023438 C 321.746094 520.460938 327.367188 518.734375 324.566406 514.824219 C 324.4375 516.53125 324.394531 517.847656 324.179688 519.144531 C 323.191406 525.597656 323.210938 509.101562 317.761719 554.402344 C 315.953125 551.488281 318.171875 553.238281 316.902344 546.328125 C 316.730469 546.261719 316.535156 546.21875 316.363281 546.15625 C 313.175781 550.0625 314.511719 559.542969 311.367188 567.703125 C 307.039062 568.308594 312.511719 543.824219 307.964844 535.574219 C 307.148438 541.640625 305.425781 578.671875 303.359375 582.558594 C 301.355469 570.058594 302.023438 580.617188 302.023438 557.296875 C 300.6875 557.707031 300.6875 557.707031 300.300781 560.816406 C 299.613281 559.414062 299.160156 558.484375 298.644531 557.449219 C 298.019531 557.492188 297.328125 557.535156 296.640625 557.578125 C 296.339844 556.496094 296.082031 555.546875 295.824219 554.574219 C 295.714844 554.597656 295.628906 554.597656 295.519531 554.621094 C 294.875 560.210938 294.230469 565.78125 293.605469 571.375 C 293.539062 571.375 293.476562 571.398438 293.410156 571.398438 C 293.347656 567.421875 293.390625 524.28125 290.160156 518.515625 C 287.46875 524 292.613281 541.1875 287.125 549.179688 C 286.949219 548.359375 286.777344 547.515625 286.519531 546.285156 C 285.507812 547.535156 285.832031 547.601562 285.183594 555.308594 C 282.492188 553.820312 279.757812 522.273438 278.035156 518.820312 C 275.128906 519.726562 281.652344 545.660156 276.488281 553.519531 C 275.949219 549.394531 270.175781 493.339844 264.921875 493.40625 C 264.363281 487.011719 263.265625 480.75 261.929688 474.511719 C 260.335938 474.898438 263.675781 490.597656 263.867188 491.289062 C 262.835938 489.691406 257.644531 467.214844 257.644531 456.332031 C 257.386719 455.941406 255.945312 456.050781 256.3125 454.820312 C 256.632812 453.71875 256.65625 445.945312 255.601562 443.980469 C 256.589844 439.878906 254.503906 428.820312 254.09375 427.871094 C 252.457031 428.886719 254.308594 430.160156 253.445312 431.238281 C 253.082031 430.289062 252.691406 429.363281 252.328125 428.433594 C 251.101562 435.320312 251.855469 429.816406 252.648438 436.8125 C 250.066406 438.734375 253.8125 439.964844 252.929688 442.621094 C 252.867188 442.835938 253.898438 447.089844 254.007812 448.296875 C 254.09375 449.292969 253.167969 452.507812 253.488281 452.917969 C 255.039062 454.96875 254.371094 457.257812 254.503906 459.9375 C 252.304688 457 254.503906 453.824219 252.113281 453.890625 C 252.433594 451.925781 253.230469 444.261719 250.367188 444.128906 C 253.101562 441.324219 249.160156 440.742188 250.949219 438.429688 C 249.527344 436.917969 251.875 434.652344 250.21875 431.5 C 249.117188 429.425781 250.023438 427.222656 249.292969 425.195312 C 249.699219 424.675781 247.417969 351.542969 249.421875 350.007812 C 251.402344 348.519531 250.476562 322.585938 250.066406 319.738281 C 249.59375 320.664062 249.378906 321.054688 248.882812 322.003906 C 248.796875 320.535156 248.753906 319.628906 248.710938 318.699219 C 250.648438 318.613281 249.335938 311.769531 250.390625 304.578125 C 251.058594 305.335938 251.101562 305.183594 250.753906 311.402344 C 250.949219 311.421875 251.121094 311.445312 251.316406 311.445312 C 256.417969 279.359375 250.691406 205.296875 258.613281 175.476562 C 259.046875 178.328125 258.527344 181.285156 259.90625 184.070312 C 261.113281 169.820312 261.78125 166.128906 260.292969 161.421875 C 260.101562 160.816406 260.421875 160.039062 260.53125 159.324219 C 261.21875 154.058594 261.089844 155.894531 260.359375 153.386719 C 259.929688 151.832031 261.542969 145.507812 260.960938 142.65625 C 201.769531 142.65625 170.980469 147.710938 138.9375 153.128906 C 139.195312 150.882812 136.097656 151.726562 135.148438 152.460938 C 136.355469 153.0625 135.535156 152.890625 138.054688 153.195312 C 135.839844 153.863281 133.597656 154.296875 130.992188 154.164062 C 131.339844 153.667969 131.554688 153.367188 131.8125 153 C 131.121094 150.777344 127.246094 151.597656 125.976562 154.078125 C 126.492188 154.230469 126.988281 154.382812 127.570312 154.53125 C 122.941406 157.859375 123.628906 152.308594 119.816406 160.515625 C 117.75 157.921875 116.503906 157.46875 118.03125 155.761719 C 119.773438 153.839844 116.460938 152.609375 115.835938 151.703125 C 148.5 150.644531 123.886719 151.746094 168.695312 144.925781 C 200.691406 140.023438 256.398438 141.230469 258.035156 137.238281 C 258.65625 138.425781 259.539062 138.878906 260.855469 138.296875 C 261.609375 136.761719 260.984375 135.121094 261.046875 133.695312 C 255.363281 132.898438 253.878906 133.265625 220.566406 134.601562 C 219.125 131.515625 217.402344 132.679688 198.734375 133.847656 C 198.023438 133.890625 197.269531 133.847656 196.96875 135.078125 C 197.117188 135.164062 204.007812 135.964844 208.984375 138.488281 C 206.441406 139.027344 189.066406 140.949219 187.515625 140.734375 C 187.320312 140.171875 187.128906 139.613281 186.914062 138.921875 C 182.929688 137.625 184.910156 141.816406 180.839844 141.621094 C 175.542969 141.359375 180.949219 140.410156 171.6875 141.921875 C 165.015625 143.046875 167.449219 138.707031 171.429688 139.179688 C 173.175781 139.394531 174.25 138.1875 176.167969 137.777344 C 170.246094 134.667969 174.8125 134.925781 135.925781 141.769531 C 131.058594 142.636719 130.929688 140.972656 130.066406 144.515625 C 124.273438 146.757812 122.25 142.527344 114.003906 147.277344 C 113.875 146.457031 113.722656 145.65625 113.574219 144.707031 C 112.863281 145.117188 112.195312 145.484375 111.527344 145.875 C 116.695312 136.761719 247.71875 129.097656 259.046875 128.320312 C 259.132812 127.519531 259.195312 126.785156 259.28125 126.007812 C 247.351562 121.691406 115.359375 138.035156 114.84375 138.035156 C 119.410156 133.824219 167.273438 129.679688 173.238281 128.492188 C 171.6875 125.511719 108.0625 129.140625 101.644531 133.847656 C 96.089844 131.363281 98.199219 133.089844 95.335938 132.398438 C 95.894531 132.035156 96.457031 131.667969 97.082031 131.257812 C 95.636719 124.648438 91.460938 129.203125 92.019531 125.125 C 91.503906 125.058594 91.050781 124.992188 90.511719 124.929688 C 90.664062 123.375 90.792969 121.839844 90.945312 120.09375 C 90.492188 119.917969 89.84375 119.683594 89.222656 119.421875 C 90.75 117.15625 89.910156 117.265625 85.949219 117.027344 C 86.464844 114.242188 83.644531 115.167969 84.097656 113.226562 C 84.417969 111.738281 83.320312 111.109375 82.375 110.3125 C 82.546875 109.511719 82.71875 108.757812 82.910156 107.9375 C 88.960938 107.289062 82.695312 106.316406 88.917969 102.582031 C 88.832031 99.988281 87.5625 99.125 85.691406 100.054688 C 84.355469 99.0625 83.148438 98.175781 81.878906 97.269531 C 82.265625 96.902344 82.78125 96.449219 83.578125 95.714844 C 82.738281 95.371094 82.160156 95.109375 81.46875 94.828125 C 76.367188 86.105469 76.625 87.726562 79.789062 85.222656 C 79.378906 83.945312 79.015625 82.800781 78.671875 81.789062 C 79.207031 81.550781 101.667969 72.265625 101.105469 68.25 C 103.839844 67.902344 105.953125 65.679688 109.074219 66.003906 C 110.496094 66.132812 112.023438 65.226562 113.679688 64.75 C 113.230469 64.125 112.972656 63.757812 112.734375 63.390625 C 114.519531 62.59375 114.519531 62.59375 114.21875 61.230469 C 256.914062 18.199219 439.550781 31.003906 443.144531 33.527344 C 445.125 31.953125 447.171875 32.535156 449.667969 33.117188 C 448.613281 33.335938 447.992188 33.464844 447.367188 33.613281 C 447.367188 33.722656 447.367188 33.832031 447.34375 33.960938 C 447.859375 34.089844 495.1875 42.726562 496.652344 44.171875 C 492.90625 45.792969 490.515625 43.828125 488.320312 46.050781 C 490.257812 47.542969 487.675781 46.269531 508.667969 50.890625 C 505.136719 53.480469 500.765625 50.414062 496.78125 51.839844 C 496.78125 52.011719 496.804688 52.164062 496.804688 52.335938 C 498.589844 52.832031 500.378906 53.308594 502.660156 53.933594 C 487.738281 55.230469 484.207031 52.378906 483.605469 55.054688 L 483.648438 54.992188 "/>
</g>
<path style=" stroke:none;fill-rule:nonzero;fill:rgb(13.729858%,12.159729%,12.548828%);fill-opacity:1;" d="M 165.53125 139.742188 C 163.335938 144.210938 154.335938 143.84375 153.300781 143.738281 C 152.71875 141.082031 154.914062 142.183594 158.382812 140.152344 C 158.898438 139.851562 159.695312 139.503906 160.105469 139.699219 C 161.847656 140.496094 163.527344 139.785156 165.53125 139.742188 "/>
<path style=" stroke:none;fill-rule:nonzero;fill:rgb(13.729858%,12.159729%,12.548828%);fill-opacity:1;" d="M 431.839844 130.976562 C 412.183594 132.097656 421.503906 133.046875 411.601562 132.398438 C 412.980469 132.097656 430.980469 129.851562 431.839844 130.976562 "/>
<path style=" stroke:none;fill-rule:nonzero;fill:rgb(13.729858%,12.159729%,12.548828%);fill-opacity:1;" d="M 447.625 119.035156 C 451.261719 117.285156 454.964844 119.292969 458.671875 118.949219 C 457.507812 120.890625 456.644531 118.472656 450.597656 119.746094 C 449.648438 119.941406 448.613281 119.769531 447.644531 119.769531 C 447.625 119.53125 447.625 119.273438 447.625 119.035156 "/>
<path style=" stroke:none;fill-rule:nonzero;fill:rgb(13.729858%,12.159729%,12.548828%);fill-opacity:1;" d="M 147.121094 141.578125 C 148.777344 141.578125 150.113281 141.578125 151.492188 141.578125 C 151.75 142.527344 150.824219 142.375 150.414062 142.722656 C 150.113281 142.980469 150.070312 143.519531 149.835938 144.125 C 149.574219 144.101562 149.039062 144.082031 148.390625 144.039062 C 148.023438 143.304688 147.636719 142.59375 147.121094 141.578125 "/>
<path style=" stroke:none;fill-rule:nonzero;fill:rgb(13.729858%,12.159729%,12.548828%);fill-opacity:1;" d="M 347.476562 447.414062 C 347.628906 446.894531 347.78125 445.210938 349.351562 445.578125 C 350.792969 445.921875 350.167969 447.953125 349.953125 449.765625 C 349.847656 449.660156 347.390625 447.28125 347.476562 447.414062 "/>
<path style=" stroke:none;fill-rule:nonzero;fill:rgb(13.729858%,12.159729%,12.548828%);fill-opacity:1;" d="M 213.117188 138.1875 C 214.496094 138.1875 215.875 138.1875 217.164062 138.1875 C 216.175781 139.050781 216.175781 139.050781 213.117188 138.1875 "/>
<path style=" stroke:none;fill-rule:nonzero;fill:rgb(13.729858%,12.159729%,12.548828%);fill-opacity:1;" d="M 483.605469 55.054688 C 484.402344 55.164062 485.199219 55.292969 486.339844 55.464844 C 484.746094 56.394531 484.746094 56.394531 483.648438 54.992188 L 483.605469 55.054688 "/>
<path style=" stroke:none;fill-rule:nonzero;fill:rgb(13.729858%,12.159729%,12.548828%);fill-opacity:1;" d="M 433.648438 130.304688 C 434.445312 130.21875 435.242188 130.15625 436.449219 130.023438 C 435.457031 131.449219 434.574219 130.933594 433.777344 130.976562 C 433.734375 130.757812 433.691406 130.523438 433.648438 130.304688 "/>
<path style=" stroke:none;fill-rule:nonzero;fill:rgb(13.729858%,12.159729%,12.548828%);fill-opacity:1;" d="M 347.5 451.796875 C 347.886719 451.582031 348.296875 451.34375 348.792969 451.039062 C 348.707031 451.992188 348.597656 452.855469 348.511719 453.695312 C 347.648438 453.089844 347.648438 453.089844 347.542969 451.753906 L 347.5 451.796875 "/>
</g>
</svg>
